<?xml version="1.0" standalone="no"?>
<!DOCTYPE svg PUBLIC "-//W3C//DTD SVG 20010904//EN"
 "http://www.w3.org/TR/2001/REC-SVG-20010904/DTD/svg10.dtd">
<svg version="1.0" xmlns="http://www.w3.org/2000/svg"
 width="600.000000pt" height="600.000000pt" viewBox="0 0 600.000000 600.000000"
 preserveAspectRatio="xMidYMid meet">

<g transform="translate(0.000000,600.000000) scale(0.100000,-0.100000)"
fill="#000000" stroke="none">
<path d="M1887 5443 c-3 -5 -9 -37 -13 -71 -3 -34 -10 -62 -13 -62 -4 0 -48
20 -99 45 -131 64 -136 62 -66 -36 79 -111 81 -103 -29 -96 -52 3 -98 3 -101
0 -8 -9 17 -25 123 -78 l92 -48 -58 -38 c-32 -21 -58 -45 -58 -51 0 -18 61
-12 177 18 108 28 105 29 191 -34 46 -33 167 -164 167 -180 0 -5 -17 -16 -37
-26 -157 -74 -401 -288 -476 -416 -94 -162 -131 -403 -91 -600 15 -75 15 -82
-1 -106 -19 -30 -15 -104 11 -176 8 -22 14 -59 14 -83 0 -40 -2 -43 -45 -65
-107 -55 -199 -275 -198 -469 1 -122 29 -207 103 -320 59 -90 121 -152 197
-197 45 -26 181 -74 212 -74 9 0 29 -19 45 -41 91 -129 245 -274 376 -355 l62
-38 -43 -12 c-127 -32 -179 -100 -159 -206 14 -73 14 -74 -34 -102 -24 -14
-58 -44 -75 -65 -34 -42 -135 -216 -145 -249 -5 -13 -37 -30 -109 -57 -56 -20
-165 -68 -242 -104 -233 -111 -335 -219 -473 -496 -69 -140 -120 -270 -167
-433 l-33 -117 2056 -3 c1130 -1 2057 -1 2059 1 1 2 -35 143 -81 313 -46 170
-89 332 -95 360 -7 29 -21 61 -32 73 -61 65 -232 156 -629 332 -262 117 -265
119 -305 171 -23 29 -69 75 -103 103 -54 42 -62 53 -62 82 0 70 -79 183 -181
258 l-57 42 52 18 c28 10 87 36 131 58 382 188 648 536 741 967 26 121 26 403
0 515 -25 111 -74 261 -102 317 -18 36 -24 64 -24 113 0 57 -3 69 -25 90 -14
15 -36 25 -53 25 -43 0 -72 37 -72 91 0 43 -3 48 -91 134 l-91 90 6 70 c4 47
2 78 -7 95 -14 29 -114 85 -166 94 -27 4 -57 26 -119 85 -46 44 -99 90 -118
103 -19 13 -34 28 -34 34 0 26 -63 95 -107 118 -27 13 -57 34 -68 46 -56 62
-243 133 -396 150 -89 10 -184 0 -261 -28 -12 -5 -52 -12 -88 -16 -36 -3 -100
-14 -142 -25 l-76 -18 -48 75 c-26 42 -62 91 -78 111 -43 49 -140 118 -177
126 -17 4 -33 14 -36 23 -3 10 -26 65 -50 124 -43 102 -65 138 -76 121z m71
-215 c19 -42 19 -48 5 -60 -19 -15 -46 -76 -39 -87 3 -4 -23 -13 -57 -19 -34
-7 -73 -15 -87 -18 -18 -4 -13 2 18 21 23 14 42 30 42 34 0 5 -37 27 -82 49
l-83 42 66 -6 c41 -4 69 -2 73 4 3 6 -14 40 -38 76 -24 36 -43 66 -41 66 2 0
30 -16 62 -35 32 -19 63 -35 70 -35 13 0 33 59 33 100 1 17 7 7 19 -30 10 -30
28 -76 39 -102z m62 -77 c0 -5 -7 -14 -15 -21 -8 -7 -15 -17 -15 -23 0 -6 11
0 25 13 26 24 26 24 61 5 44 -23 64 -46 47 -52 -7 -3 -13 -9 -13 -14 0 -6 7
-6 18 0 15 8 25 4 50 -22 l31 -32 -24 -30 -24 -30 -1 31 c0 16 5 35 12 42 21
21 -2 13 -37 -13 -33 -26 -33 -26 -47 -6 -8 12 -17 18 -21 15 -3 -3 -3 3 0 15
3 13 1 21 -7 21 -9 0 -8 6 3 18 35 38 13 44 -30 8 -26 -21 -29 -22 -44 -7 -28
28 -30 40 -13 66 16 24 44 35 44 16z m231 -193 c26 -32 24 -42 -15 -54 -29 -9
-35 -8 -45 8 -6 10 -17 16 -24 13 -7 -4 3 7 21 24 18 17 35 31 38 31 3 0 14
-10 25 -22z m59 -100 c0 -4 -2 -8 -4 -8 -2 0 -20 -7 -39 -15 -26 -11 -38 -12
-43 -3 -5 7 -3 8 6 3 10 -6 12 -4 7 8 -4 11 3 24 21 37 25 20 27 20 39 4 7
-10 13 -21 13 -26z m1095 -547 c97 -44 142 -110 126 -183 -19 -83 -67 -116
-169 -117 -101 -2 -181 65 -190 159 -3 33 -1 50 6 50 6 0 9 6 6 14 -3 9 15 29
48 55 61 47 106 53 173 22z m259 -23 c-3 -5 2 -8 11 -8 9 0 13 -4 10 -10 -8
-13 -52 -13 -60 -1 -3 5 0 21 6 35 11 24 13 24 25 8 7 -9 10 -20 8 -24z
m-1718 -276 c-21 -41 -71 -215 -86 -299 -7 -40 -16 -73 -19 -73 -3 0 -8 -53
-9 -118 -2 -64 -5 -117 -5 -118 -1 -1 -17 -4 -36 -8 l-34 -6 6 107 c6 123 35
274 73 389 29 86 41 107 57 97 5 -3 7 -1 4 4 -4 6 8 20 26 32 41 26 40 26 23
-7z m2144 -167 c7 -8 9 -15 6 -15 -69 0 -278 -61 -262 -77 2 -2 37 6 77 17 44
12 120 23 186 27 l111 6 12 -44 c7 -24 10 -60 7 -80 -3 -24 2 -52 14 -79 10
-23 19 -44 19 -46 0 -2 -20 11 -45 30 -55 42 -99 58 -169 58 -258 2 -391 -307
-209 -489 56 -56 105 -77 194 -81 61 -3 86 0 122 16 83 37 134 98 172 207 23
63 48 -214 34 -363 -37 -391 -226 -730 -535 -959 -193 -142 -470 -244 -669
-245 -79 0 -205 39 -388 121 -38 17 -65 26 -61 20 8 -14 264 -139 283 -139 8
0 12 -2 9 -5 -8 -8 -130 22 -203 50 -91 34 -262 121 -316 161 -26 19 -50 34
-54 34 -16 0 31 -43 95 -88 90 -63 93 -67 28 -38 -157 69 -337 215 -466 379
l-53 68 35 14 c20 8 42 15 49 15 27 0 70 44 92 94 39 89 49 154 49 306 1 128
-3 157 -27 244 -29 107 -98 259 -141 316 l-27 35 33 28 c122 103 481 277 758
367 207 67 217 69 153 26 -79 -54 -75 -64 8 -19 74 40 178 83 203 83 14 0 46
-97 46 -138 0 -16 -6 -22 -23 -22 -41 0 -125 -50 -171 -101 -136 -151 -95
-396 83 -492 28 -16 73 -31 101 -34 40 -5 50 -10 50 -24 0 -15 -8 -19 -37 -20
l-38 -1 33 -8 c42 -10 41 -9 51 -61 l8 -44 17 37 c9 21 16 44 16 51 0 8 18 19
41 26 23 7 39 14 37 17 -2 2 -19 0 -36 -5 -28 -8 -32 -7 -32 9 0 13 12 22 38
30 59 19 139 78 172 128 16 25 30 50 30 56 0 5 10 29 21 54 19 37 20 49 10 80
-6 21 -15 56 -21 79 -24 99 -118 189 -230 219 -51 15 -57 19 -74 60 -10 24
-28 60 -41 78 l-23 34 56 7 c61 7 143 -7 179 -31 12 -7 25 -14 29 -14 14 0
-22 32 -55 50 l-36 18 90 6 c50 4 101 8 115 10 14 2 122 4 241 5 182 1 219 -1
229 -14z m127 -282 c25 -20 73 -83 73 -95 0 -18 -17 -6 -35 25 -10 17 -37 49
-59 71 -39 37 -26 36 21 -1z m-696 -30 c37 -40 59 -75 59 -93 -1 -8 -10 2 -21
23 -11 21 -38 56 -60 78 -22 22 -32 36 -22 31 10 -6 30 -23 44 -39z m713 -286
c-22 -24 -59 -67 -83 -96 -53 -64 -76 -76 -135 -67 l-46 7 29 25 c16 13 53 56
81 94 28 38 56 71 63 74 7 2 38 5 71 5 l59 1 -39 -43z m61 16 c-10 -45 -57
-104 -104 -135 -25 -15 -49 -28 -54 -28 -4 0 11 24 35 53 47 58 120 137 126
137 2 0 1 -12 -3 -27z m-346 -9 c-13 -15 -42 -40 -63 -55 -43 -32 -55 -29 -82
22 -25 50 -30 48 135 57 l34 2 -24 -26z m155 14 c-21 -36 -107 -138 -129 -152
-23 -15 -27 -15 -64 4 -50 25 -59 40 -35 53 10 6 42 32 69 59 48 46 52 48 108
48 44 0 56 -3 51 -12z m-514 -28 c-6 -11 -23 -26 -38 -34 -15 -8 -60 -51 -100
-95 l-73 -81 -75 0 -75 0 53 61 c141 162 135 158 191 162 130 9 129 9 117 -13z
m-200 0 c0 -4 -4 -10 -8 -12 -4 -1 -33 -35 -65 -74 -67 -86 -102 -115 -125
-107 -30 12 -82 45 -82 52 0 4 16 15 36 24 20 10 59 40 87 66 38 36 62 50 87
53 19 2 43 4 53 5 9 1 17 -2 17 -7z m-151 -26 c-33 -37 -139 -105 -151 -98
-12 8 -68 95 -68 105 0 10 51 15 159 17 l84 2 -24 -26z m324 -41 c-9 -16 -24
-36 -32 -47 -19 -22 -101 -80 -106 -74 -7 6 130 148 143 148 9 0 7 -8 -5 -27z
m-1536 -959 c24 -35 41 -64 39 -64 -5 0 -96 117 -96 124 0 18 20 -3 57 -60z"/>
<path d="M1894 3949 c0 -10 4 -19 8 -19 4 0 8 6 8 14 0 8 -4 17 -8 20 -4 2 -8
-4 -8 -15z"/>
<path d="M1887 3913 c-4 -3 -7 -11 -7 -17 0 -6 5 -5 12 2 6 6 9 14 7 17 -3 3
-9 2 -12 -2z"/>
<path d="M1835 3720 c3 -5 8 -10 11 -10 2 0 4 5 4 10 0 6 -5 10 -11 10 -5 0
-7 -4 -4 -10z"/>
<path d="M3746 3223 c72 -112 84 -126 62 -75 -19 43 -60 102 -70 102 -6 0 -2
-12 8 -27z"/>
<path d="M3736 3191 c11 -18 28 -40 38 -49 15 -13 13 -7 -7 28 -15 25 -32 47
-38 49 -6 2 -3 -11 7 -28z"/>
<path d="M3860 3065 c19 -23 119 -50 133 -36 8 8 1 11 -24 11 -19 0 -52 9 -74
20 -47 24 -51 25 -35 5z"/>
<path d="M4094 2701 c9 -10 21 -32 26 -47 8 -28 8 -29 9 -4 1 28 -24 70 -41
70 -6 0 -3 -9 6 -19z"/>
<path d="M3820 2666 c-84 -22 -287 -36 -475 -34 -115 2 -179 -1 -197 -9 -59
-26 -87 -127 -54 -192 53 -102 221 -170 421 -171 268 -1 474 83 546 222 32 61
19 156 -23 179 -32 17 -158 20 -218 5z m186 -18 c12 -19 8 -96 -5 -112 -16
-20 -80 -32 -99 -19 -11 7 -21 4 -33 -8 -21 -21 -156 -46 -171 -31 -7 7 -17 6
-32 -3 -30 -20 -191 -32 -210 -16 -10 8 -16 9 -21 1 -3 -5 -42 -10 -91 -10
-70 0 -86 3 -95 18 -8 12 -20 17 -35 14 -28 -5 -88 14 -104 34 -17 20 6 73 37
85 42 16 93 11 94 -8 0 -14 3 -12 9 5 9 22 14 23 102 20 l93 -3 4 -30 4 -30 6
28 6 28 101 5 c99 5 102 5 109 -18 l7 -23 7 25 c6 20 16 26 71 36 103 20 107
19 118 -23 l10 -38 1 43 1 42 54 0 c31 0 58 -5 62 -12z"/>
<path d="M3583 2163 c15 -2 37 -2 50 0 12 2 0 4 -28 4 -27 0 -38 -2 -22 -4z"/>
</g>
</svg>
