<svg width="500" height="500" viewBox="0 0 500 500" fill="none" xmlns="http://www.w3.org/2000/svg">
<g filter="url(#filter0_d_429_127)">
<ellipse cx="249.916" cy="250.25" rx="129.916" ry="128.25" fill="#425ACE"/>
</g>
<g clip-path="url(#clip0_429_127)">
<path d="M249.972 311.877C240.04 311.748 230.127 311.305 220.606 308.264C217.469 307.269 214.501 305.684 211.607 304.08C209.423 302.882 208.695 300.799 209.087 298.274C210.487 289.206 211.42 280.045 213.25 271.069C216.274 256.121 230.164 245.154 245.603 244.988C251.148 244.932 256.73 244.601 262.218 246.038C275.492 249.485 285.405 260.507 287.347 274.11C288.485 282.109 289.587 290.109 290.819 298.09C291.248 300.91 290.24 302.882 287.963 304.43C284.229 306.955 280.01 308.301 275.66 309.333C267.222 311.361 258.615 311.766 249.972 311.877Z" fill="white"/>
<path d="M250.009 241.43C235.205 241.467 223.219 229.671 223.219 215.073C223.2 200.493 235.242 188.605 249.972 188.623C264.664 188.642 276.649 200.457 276.687 214.944C276.724 229.579 264.813 241.375 250.009 241.412V241.43Z" fill="white"/>
<path d="M281.428 249.041C295.598 240.765 314.752 245.631 322.481 261.224C324.702 265.703 325.001 270.643 326.196 275.361C327.297 279.693 325.487 282.439 322.107 284.706C317.179 288.005 311.616 289.425 305.828 290.143C303.345 290.457 300.825 290.475 298.342 290.733C297.166 290.844 296.849 290.42 296.681 289.314C295.766 282.9 294.926 276.467 293.731 270.09C292.293 262.367 288.504 255.787 282.959 250.183C282.567 249.796 282.063 249.52 281.409 249.041H281.428Z" fill="white"/>
<path d="M218.235 248.876C211.757 254.977 207.594 262.147 205.988 270.607C204.961 276.063 204.27 281.574 203.505 287.067C202.982 290.79 203.038 290.79 199.174 290.606C193.125 290.311 187.17 289.444 181.681 286.827C179.366 285.721 177.257 284.118 175.24 282.514C173.635 281.242 173.038 279.381 173.411 277.316C174.064 273.796 174.55 270.257 175.408 266.792C179.87 248.968 200.014 239.826 216.629 247.991C217.115 248.231 217.581 248.526 218.235 248.876Z" fill="white"/>
<path d="M203.561 241.41C195.179 241.392 187.824 236.212 185.079 228.434C182.335 220.637 184.855 212.085 191.427 206.906C197.849 201.837 206.903 201.339 213.96 205.634C214.912 206.224 215.36 206.758 215.099 207.993C213.288 216.453 214.595 224.49 218.795 232.047C219.374 233.097 219.299 233.742 218.534 234.609C214.744 238.977 209.442 241.428 203.561 241.41Z" fill="white"/>
<path d="M294.851 241.411C290.128 241.319 285.237 238.997 281.317 234.573C280.607 233.762 280.458 233.172 281.037 232.14C285.293 224.546 286.619 216.455 284.77 207.939C284.528 206.778 284.938 206.262 285.834 205.691C292.873 201.322 301.983 201.82 308.498 206.944C314.995 212.049 317.515 220.712 314.771 228.472C312.008 236.324 304.634 241.411 294.851 241.393V241.411Z" fill="white"/>
</g>
<defs>
<filter id="filter0_d_429_127" x="111.4" y="119.4" width="277.031" height="273.7" filterUnits="userSpaceOnUse" color-interpolation-filters="sRGB">
<feFlood flood-opacity="0" result="BackgroundImageFix"/>
<feColorMatrix in="SourceAlpha" type="matrix" values="0 0 0 0 0 0 0 0 0 0 0 0 0 0 0 0 0 0 127 0" result="hardAlpha"/>
<feMorphology radius="3" operator="dilate" in="SourceAlpha" result="effect1_dropShadow_429_127"/>
<feOffset dy="6"/>
<feGaussianBlur stdDeviation="2.8"/>
<feComposite in2="hardAlpha" operator="out"/>
<feColorMatrix type="matrix" values="0 0 0 0 0 0 0 0 0 0 0 0 0 0 0 0 0 0 0.25 0"/>
<feBlend mode="normal" in2="BackgroundImageFix" result="effect1_dropShadow_429_127"/>
<feBlend mode="normal" in="SourceGraphic" in2="effect1_dropShadow_429_127" result="shape"/>
</filter>
<clipPath id="clip0_429_127">
<rect width="153.234" height="123.253" fill="white" transform="translate(173.299 188.623)"/>
</clipPath>
</defs>
</svg>
