<svg width="500" height="500" viewBox="0 0 500 500" fill="none" xmlns="http://www.w3.org/2000/svg">
<ellipse cx="249.915" cy="250.25" rx="129.915" ry="128.25" fill="#425ACE"/>
<g clip-path="url(#clip0_478_4)">
<path d="M309.505 220.314C309.064 222.363 308.758 224.452 308.164 226.444C306.901 230.754 304.603 234.49 301.444 237.67C292.693 246.463 284 255.332 275.096 263.953C264.948 273.781 247.428 274.279 236.552 263.512C233.412 260.409 233.182 255.677 236.035 252.421C238.754 249.317 243.656 248.934 247.045 251.654C248.788 253.053 250.473 254.451 252.713 255.026C257.002 256.137 260.87 255.371 264.125 252.363C266.767 249.93 269.237 247.325 271.784 244.796C277.777 238.819 283.789 232.842 289.744 226.827C295.508 221.003 294.34 211.693 287.389 207.708C282.755 205.065 276.839 205.889 272.856 209.816C268.146 214.471 263.436 219.145 258.802 223.896C257.595 225.122 256.485 225.448 254.857 224.796C250.932 223.226 246.815 222.612 242.622 222.612C241.646 222.612 240.86 222.306 240.439 221.367C240.018 220.39 240.401 219.624 241.09 218.954C248.309 211.77 255.47 204.528 262.765 197.421C267.035 193.283 272.301 191.023 278.198 190.295C278.505 190.257 278.792 190.142 279.098 190.065C280.745 190.065 282.372 190.065 284.019 190.065C284.402 190.142 284.766 190.257 285.149 190.314C296.235 192.096 303.875 198.207 307.858 208.724C308.72 210.984 308.988 213.455 309.543 215.831V220.275L309.505 220.314Z" fill="white"/>
<path d="M243.236 228.666C250.589 228.743 257.176 231.425 262.652 236.75C265.773 239.777 265.907 244.547 263.073 247.746C260.335 250.811 255.471 251.195 252.159 248.532C250.397 247.114 248.693 245.677 246.395 245.103C242.279 244.049 238.602 244.815 235.309 247.478C235.06 247.67 234.83 247.88 234.62 248.11C226.099 256.635 217.54 265.122 209.058 273.704C204.96 277.861 204.5 284.298 207.775 288.953C212.102 295.102 220.757 295.811 226.233 290.389C230.924 285.754 235.596 281.118 240.192 276.367C241.532 274.987 242.757 274.662 244.538 275.39C248.272 276.903 252.197 277.459 256.199 277.478C257.271 277.478 258.248 277.612 258.726 278.742C259.224 279.892 258.573 280.677 257.827 281.405C250.55 288.646 243.447 296.06 235.941 303.052C229.66 308.914 221.867 311.041 213.385 309.642C202.452 307.841 194.888 301.577 191.25 291.137C187.765 281.137 189.738 271.884 196.535 263.781C198.699 261.194 201.245 258.896 203.639 256.482C210.398 249.719 217.1 242.9 223.954 236.252C229.201 231.176 235.634 228.8 243.217 228.685L243.236 228.666Z" fill="white"/>
</g>
<defs>
<clipPath id="clip0_478_4">
<rect width="119.922" height="119.922" fill="white" transform="translate(189.584 190.104)"/>
</clipPath>
</defs>
</svg>
