<?xml version="1.0" standalone="no"?>
<!DOCTYPE svg PUBLIC "-//W3C//DTD SVG 20010904//EN"
 "http://www.w3.org/TR/2001/REC-SVG-20010904/DTD/svg10.dtd">
<svg version="1.0" xmlns="http://www.w3.org/2000/svg"
 width="600.000000pt" height="600.000000pt" viewBox="0 0 600.000000 600.000000"
 preserveAspectRatio="xMidYMid meet">

<g transform="translate(0.000000,600.000000) scale(0.100000,-0.100000)"
fill="#000000" stroke="none">
<path d="M1887 5437 c-3 -9 -9 -42 -13 -75 l-6 -60 -105 50 c-57 28 -107 48
-110 45 -3 -3 20 -42 51 -87 31 -45 56 -84 56 -86 0 -3 -43 -4 -95 -2 -58 2
-94 -1 -92 -7 2 -5 51 -34 109 -65 l107 -56 -44 -23 c-24 -12 -53 -34 -66 -47
l-22 -24 38 0 c22 0 85 12 141 26 l101 26 41 -21 c50 -25 158 -125 197 -181
15 -22 26 -42 24 -44 -2 -2 -38 -22 -79 -46 -237 -137 -410 -316 -483 -501
-56 -140 -71 -377 -34 -514 13 -46 12 -52 -6 -78 -18 -26 -19 -35 -8 -99 6
-38 17 -84 24 -101 6 -18 11 -49 9 -70 -3 -32 -9 -40 -41 -57 -77 -39 -145
-151 -183 -304 -29 -112 -22 -265 14 -354 40 -97 88 -170 153 -236 70 -71 149
-116 263 -149 79 -23 83 -25 132 -88 27 -35 64 -82 82 -103 19 -22 28 -41 22
-43 -26 -9 -181 -117 -282 -196 -94 -74 -110 -91 -115 -121 -7 -45 5 -132 32
-228 l21 -75 -52 -119 c-29 -68 -52 -135 -52 -155 -1 -36 -2 -38 -82 -73 -86
-39 -224 -117 -267 -152 -45 -36 -201 -476 -296 -832 -28 -106 -29 -112 -11
-112 15 0 23 13 35 58 54 191 136 458 183 592 30 85 60 174 66 198 7 24 15 43
19 42 4 0 14 0 23 0 13 0 13 -3 -4 -17 -13 -11 -43 -85 -80 -198 -54 -161 -84
-273 -152 -557 -11 -48 -23 -94 -26 -103 -5 -13 52 -15 520 -15 289 0 526 2
526 5 0 11 -81 315 -99 370 -10 33 -35 97 -54 143 -19 45 -34 82 -32 82 2 0
24 -34 49 -75 81 -128 189 -346 211 -424 l22 -74 31 57 c17 32 36 73 42 92 16
48 100 128 173 166 120 62 299 129 533 202 27 8 58 18 67 22 14 5 17 0 17 -36
0 -51 25 -107 51 -115 15 -5 19 -16 19 -49 0 -43 21 -78 34 -57 4 6 20 8 36 4
40 -7 45 11 29 91 -10 55 -10 69 4 102 12 29 16 33 16 17 1 -12 6 -25 11 -28
6 -3 10 -30 10 -60 l0 -53 42 1 c42 2 42 2 51 47 4 25 13 56 20 69 14 27 16
117 4 176 l-8 40 63 35 c35 19 72 40 83 47 11 7 29 16 40 21 11 6 60 33 108
61 49 28 91 51 94 51 3 0 25 14 50 30 24 17 46 30 48 30 2 0 35 20 72 43 37
24 76 47 85 50 20 7 238 -94 419 -193 136 -75 298 -180 350 -227 l38 -34 -18
-52 c-24 -69 -88 -217 -173 -402 -38 -82 -72 -156 -75 -162 -4 -10 10 -13 53
-13 l59 0 37 128 c56 188 89 304 93 327 14 67 28 115 34 115 4 0 20 -48 35
-107 74 -277 134 -458 151 -461 12 -3 16 1 12 15 -3 10 -33 112 -67 228 -34
116 -68 237 -77 270 -49 179 -138 254 -550 462 l-213 108 6 30 c6 38 -27 167
-59 232 -22 43 -24 51 -12 73 20 37 38 157 31 208 -11 83 -85 177 -194 250
-29 19 -49 38 -45 42 4 3 38 30 75 58 88 69 193 183 259 281 42 62 58 79 74
76 11 -2 98 -7 194 -10 l174 -6 -31 35 c-40 45 -66 134 -58 193 9 68 41 123
72 123 14 0 23 4 19 10 -4 6 -55 10 -121 10 -126 0 -124 -1 -104 69 5 18 15
90 21 160 12 122 13 127 47 165 54 61 94 156 100 239 2 40 8 77 13 82 13 17
-11 107 -30 112 -9 2 -29 24 -44 48 -38 60 -95 108 -165 142 -55 25 -61 31
-66 65 -7 42 -37 68 -79 68 -43 0 -76 44 -69 92 4 37 1 41 -87 131 l-91 93 0
86 c0 68 -3 88 -17 100 -28 24 -95 56 -147 69 -35 9 -61 26 -106 70 -33 32
-83 77 -112 99 -28 23 -65 64 -82 92 -22 36 -44 59 -76 75 -25 13 -61 38 -82
56 -85 77 -289 146 -442 148 -51 1 -114 -6 -171 -19 -49 -11 -140 -30 -201
-41 -60 -11 -117 -23 -126 -26 -12 -5 -29 14 -64 72 -66 105 -144 182 -225
222 l-65 32 -42 107 c-48 119 -75 164 -85 139z m71 -209 c19 -42 19 -48 5 -60
-20 -16 -46 -76 -38 -87 3 -5 -23 -14 -58 -20 -34 -6 -73 -14 -87 -17 -18 -4
-13 2 18 21 23 14 42 30 42 34 0 5 -37 27 -82 49 l-83 42 67 -5 c37 -3 69 -1
72 4 3 5 -14 39 -38 75 -24 36 -43 66 -41 66 2 0 30 -16 62 -35 32 -19 63 -35
70 -35 13 0 33 59 33 100 1 17 7 7 19 -30 10 -30 28 -76 39 -102z m62 -77 c0
-5 -7 -14 -15 -21 -8 -7 -15 -17 -15 -23 0 -6 11 0 25 13 26 24 26 24 61 5 44
-23 64 -46 47 -52 -7 -3 -13 -9 -13 -14 0 -6 6 -6 18 0 13 8 24 3 49 -21 30
-29 31 -32 16 -54 -8 -13 -19 -24 -24 -24 -13 0 -11 44 3 58 21 21 -2 13 -35
-12 -29 -22 -34 -23 -51 -10 -11 8 -16 14 -12 14 5 0 1 11 -7 24 -14 21 -14
26 -2 36 17 14 20 30 6 30 -5 0 -22 -11 -38 -24 -24 -20 -30 -22 -41 -10 -7 8
-17 12 -21 10 -13 -8 -5 52 9 69 13 16 40 21 40 6z m231 -193 c26 -32 24 -42
-14 -53 -29 -10 -35 -8 -50 11 -16 22 -16 23 9 43 33 26 32 26 55 -1z m59 -99
c0 -4 -17 -14 -37 -22 -38 -15 -63 -9 -63 16 0 6 7 2 15 -9 14 -19 14 -18 15
4 0 12 -5 22 -12 22 -18 0 -3 10 22 15 12 2 25 7 29 10 6 6 31 -23 31 -36z
m969 -115 c52 -18 105 -43 118 -56 l24 -22 -33 -16 c-57 -28 -112 -61 -126
-74 -11 -10 -10 -15 1 -24 18 -15 139 -31 233 -32 66 0 72 -2 102 -32 l31 -33
-272 -1 c-246 -1 -286 -3 -417 -27 -193 -35 -381 -93 -583 -181 -44 -19 -44
-18 19 64 134 176 382 342 649 435 53 18 99 36 102 39 8 8 43 -1 152 -40z
m-1060 12 c-2 -2 -40 -25 -84 -51 -103 -60 -174 -114 -253 -189 -75 -71 -108
-118 -157 -215 -79 -158 -100 -289 -74 -466 8 -55 9 -79 1 -87 -19 -19 -27 39
-27 187 1 255 60 397 237 572 98 97 150 137 261 203 68 41 114 63 96 46z m965
-373 l15 -28 1 28 0 27 152 0 c127 0 154 -3 170 -17 13 -11 18 -12 18 -3 0 10
16 11 66 7 50 -4 71 -10 90 -28 13 -12 24 -27 24 -32 0 -6 7 -19 17 -29 11
-12 18 -45 23 -103 6 -73 12 -92 42 -142 35 -56 36 -60 26 -110 l-11 -53 -51
0 -52 0 4 41 c6 62 -11 67 -32 9 -18 -50 -18 -50 -61 -50 -24 0 -50 -3 -59 -6
-13 -5 -16 1 -16 30 0 45 -12 46 -28 2 -11 -30 -17 -34 -59 -40 -79 -11 -100
-8 -106 14 -4 16 7 26 65 57 130 68 176 138 149 226 -7 23 -15 56 -18 72 -3
17 -17 42 -31 58 -14 15 -21 27 -15 27 13 0 43 -27 43 -39 0 -16 42 -51 60
-51 30 0 25 13 -29 69 -46 48 -69 60 -85 44 -3 -4 -55 -7 -114 -8 -118 -1
-161 -15 -214 -72 -37 -38 -48 -73 -48 -147 0 -72 13 -118 47 -162 26 -35 98
-67 140 -62 22 2 29 -1 31 -19 3 -19 -4 -22 -70 -33 -40 -7 -98 -18 -129 -25
l-57 -13 -6 38 c-3 21 -13 43 -21 50 -13 11 -15 5 -15 -43 l0 -55 -44 -11
c-68 -17 -73 -15 -80 27 -3 20 -24 77 -46 127 -22 49 -53 139 -69 200 -16 60
-34 124 -41 140 -6 17 -11 32 -11 34 0 7 136 38 148 34 6 -2 21 -31 33 -63 12
-33 26 -60 31 -60 12 0 11 15 -5 81 l-13 57 46 6 c25 4 73 9 106 13 33 3 62 7
64 9 8 7 10 4 25 -23z m624 -31 c20 -26 32 -82 32 -150 0 -53 6 -74 42 -145
22 -45 44 -99 48 -119 l7 -38 -42 0 -42 0 5 56 c4 45 1 61 -15 82 -39 52 -50
88 -57 172 -6 61 -14 97 -31 128 l-24 43 32 -6 c18 -4 38 -14 45 -23z m82
-124 c0 -104 12 -139 72 -210 53 -64 62 -46 12 25 l-37 52 41 -45 c47 -52 59
-89 42 -131 -13 -31 -14 -32 -47 -23 -18 5 -23 14 -23 40 0 20 -18 67 -45 120
-41 77 -45 92 -45 155 0 39 -7 85 -15 105 l-14 35 29 -18 c30 -17 30 -18 30
-105z m-484 83 c57 -26 111 -76 124 -117 9 -27 8 -44 -5 -83 -25 -76 -47 -90
-156 -98 -105 -8 -191 62 -195 158 -2 27 1 47 6 44 5 -3 14 5 21 17 11 21 11
22 -4 9 -24 -19 -21 2 2 23 11 10 25 15 32 10 7 -4 10 -3 5 4 -3 5 6 20 21 31
35 26 95 27 149 2z m-658 -63 c16 -40 35 -100 42 -133 8 -33 22 -80 33 -105
33 -76 67 -182 67 -207 0 -22 -3 -23 -79 -23 -44 0 -86 -2 -94 -5 -15 -7 -31
28 -68 155 -12 41 -37 111 -55 155 -18 44 -37 103 -42 132 l-9 52 71 25 c39
13 78 25 88 25 11 1 25 -21 46 -71z m-206 -113 c11 -44 23 -85 28 -90 10 -12
50 -214 50 -251 0 -23 -3 -24 -59 -24 l-59 0 -13 53 c-6 28 -25 80 -41 115
-30 66 -72 252 -60 264 4 4 34 19 67 32 l60 24 3 -21 c2 -12 13 -58 24 -102z
m-183 9 c0 -25 10 -74 22 -108 17 -53 54 -265 47 -271 -2 -1 -24 -5 -50 -8
-44 -6 -48 -5 -53 16 -35 156 -46 202 -61 258 -22 85 -16 109 38 136 24 12 46
22 49 22 3 1 7 -20 8 -45z m-139 -70 c0 -25 11 -78 24 -117 13 -40 26 -102 30
-139 7 -75 5 -77 -51 -57 -26 9 -35 21 -56 82 -38 108 -39 110 -26 181 9 56
16 69 38 81 39 21 41 19 41 -31z m-286 -91 c-13 -32 -26 -73 -30 -90 -4 -19
-11 -30 -17 -26 -5 3 -7 2 -4 -4 6 -10 -37 -236 -44 -229 -2 2 -6 -48 -7 -112
-2 -65 -5 -118 -5 -118 -1 -1 -19 -4 -39 -8 l-37 -7 4 43 c2 24 6 75 10 113 8
95 41 254 71 345 20 59 34 83 67 112 23 21 45 38 48 38 4 0 -4 -26 -17 -57z
m2132 -79 c-3 -8 -12 -14 -21 -14 -14 0 -13 4 2 33 13 25 18 28 21 14 2 -10 1
-25 -2 -33z m24 -59 c7 -8 9 -15 6 -15 -69 0 -278 -61 -262 -77 2 -2 37 6 77
17 45 13 118 24 185 27 l111 6 11 -31 11 -31 -70 0 c-38 0 -93 -7 -122 -15
-68 -20 -153 -79 -196 -138 -30 -39 -38 -45 -54 -37 -21 12 -81 4 -117 -16
-23 -12 -27 -10 -82 50 -101 110 -201 151 -345 142 -123 -7 -188 -41 -306
-160 -86 -86 -98 -95 -157 -111 -106 -29 -314 -98 -326 -107 -6 -5 -64 -24
-130 -44 -65 -19 -140 -41 -165 -49 l-46 -14 -28 35 -28 36 34 28 c87 73 346
211 559 297 104 42 375 132 398 132 4 0 -17 -16 -45 -35 -84 -56 -71 -59 34
-6 54 27 125 57 158 67 82 24 207 23 260 -1 22 -11 45 -21 50 -24 27 -12 -23
33 -54 49 l-36 18 100 6 c55 4 107 9 115 10 8 2 112 4 231 5 181 1 219 -1 229
-14z m-2424 -390 c-4 -12 -33 83 -41 133 -3 20 6 1 20 -43 13 -44 23 -84 21
-90z m2099 -92 c0 -79 5 -119 18 -148 17 -41 10 -35 -27 20 -8 11 -16 18 -19
15 -3 -3 8 -27 26 -54 17 -27 33 -43 35 -37 2 6 20 -12 40 -40 68 -97 190
-159 311 -159 65 0 166 22 186 41 5 5 14 9 20 9 14 0 2 -147 -20 -247 l-16
-73 -112 0 c-135 0 -200 -14 -292 -63 -152 -81 -214 -108 -266 -116 -58 -9
-419 2 -456 14 -27 9 -31 -9 -5 -21 9 -4 123 -10 252 -14 l235 -5 120 -54 c99
-45 134 -56 200 -62 118 -11 165 -20 165 -32 0 -19 -136 -190 -197 -248 -182
-174 -423 -300 -659 -344 -179 -34 -269 -16 -537 104 -38 17 -65 26 -61 20 8
-14 264 -139 283 -139 8 0 12 -2 9 -5 -8 -8 -126 21 -204 51 -94 35 -259 119
-317 161 -27 19 -51 32 -53 30 -6 -6 77 -75 134 -112 23 -15 42 -29 42 -31 0
-2 -25 7 -55 21 -78 34 -207 121 -293 196 -78 69 -224 238 -216 251 3 4 29 15
58 23 61 18 87 42 114 105 36 85 46 151 47 300 0 155 -16 239 -70 373 -19 45
-22 63 -13 68 6 4 62 22 122 40 84 24 134 33 206 35 52 1 138 9 190 18 172 27
162 29 175 -29 18 -77 57 -145 119 -203 208 -197 539 -136 667 124 26 52 33
81 37 142 2 42 -1 96 -6 120 -9 40 -8 44 11 52 12 5 33 9 47 9 l25 1 0 -107z
m602 -715 c-66 -89 -63 -209 7 -287 l21 -24 -70 7 c-63 6 -73 10 -97 38 -16
18 -28 38 -28 44 0 7 -13 22 -30 34 -38 27 -42 80 -8 104 12 8 31 35 43 58 21
43 22 43 86 49 35 3 72 6 82 7 16 2 15 -2 -6 -30z m-461 -102 c-10 -25 -23
-37 -43 -42 -48 -10 -49 -12 -10 -13 31 -1 39 -6 48 -27 5 -15 7 -35 4 -45 -6
-17 -9 -18 -38 -5 -195 86 -190 84 -160 90 15 4 69 29 118 56 97 52 108 50 81
-14z m-1893 -314 l27 -47 -35 40 c-34 39 -42 55 -27 55 4 0 19 -22 35 -48z
m-27 -279 c-68 -65 -101 -139 -101 -228 0 -46 6 -81 17 -102 9 -18 14 -33 12
-33 -13 0 -105 52 -132 74 -16 15 -32 26 -34 26 -2 0 0 -41 4 -92 6 -62 16
-109 33 -145 l24 -53 -23 6 c-21 5 -27 -3 -65 -90 -23 -52 -48 -112 -56 -133
-9 -24 -14 -31 -14 -18 -1 26 75 229 87 233 5 1 3 37 -4 80 -21 129 -28 266
-15 290 10 18 295 231 311 232 2 0 -17 -21 -44 -47z m1879 -108 c67 -47 137
-121 162 -169 12 -24 14 -49 8 -130 l-7 -100 -59 -73 c-78 -94 -251 -255 -292
-270 -18 -6 -44 -12 -60 -12 -25 -1 -27 1 -21 26 4 15 27 75 51 133 58 137 93
254 93 310 0 58 -23 167 -48 222 l-19 43 56 32 c31 18 60 33 65 33 5 0 37 -20
71 -45z m-527 -486 c43 -8 60 -14 51 -20 -9 -6 -2 -7 19 -3 26 5 32 3 32 -10
0 -9 7 -19 15 -22 8 -4 12 -11 8 -17 -3 -5 -2 -7 3 -4 6 3 16 2 24 -3 24 -15
-3 -56 -40 -64 -52 -10 -297 -7 -395 5 -92 11 -228 47 -298 77 -39 17 -39 17
106 17 80 0 143 -4 140 -8 -6 -10 34 -1 137 34 98 32 110 33 198 18z m712 -81
c32 -83 41 -151 21 -171 -8 -8 -11 -8 -11 1 0 16 -65 15 -111 -2 l-36 -13 8
26 c4 14 12 51 17 81 12 63 59 173 72 165 5 -3 23 -42 40 -87z m-555 32 c39
-26 25 -26 -17 0 -18 11 -28 20 -23 20 6 0 24 -9 40 -20z m-530 -101 c106 -23
347 -36 423 -22 28 6 52 7 52 2 0 -13 -108 -24 -225 -23 -114 1 -370 45 -390
66 -7 7 -1 8 20 3 17 -3 71 -15 120 -26z m22 -31 c118 -25 349 -30 429 -11
l42 10 -39 -71 c-21 -39 -43 -70 -49 -69 -5 2 -6 -5 -3 -14 5 -12 3 -14 -7 -8
-10 6 -12 4 -7 -7 7 -20 -58 -30 -132 -21 l-51 6 -2 46 -2 46 -3 -47 c-4 -44
-6 -48 -30 -48 -18 0 -51 22 -107 73 -45 39 -99 87 -121 105 -22 17 -37 32
-33 32 4 0 56 -10 115 -22z m-1229 -43 c-2 -3 -72 -38 -154 -79 -82 -41 -175
-90 -207 -110 -41 -25 -64 -33 -78 -28 -17 7 -1 19 88 70 111 63 190 101 278
132 49 18 83 25 73 15z m1476 -194 c3 -5 24 -7 46 -4 22 3 40 2 40 -1 0 -15
-52 -96 -62 -96 -11 0 -97 90 -98 103 0 10 68 9 74 -2z m-228 -62 c3 -6 -5 -3
-20 6 -14 10 -26 19 -26 22 0 7 39 -17 46 -28z m232 -149 c17 -30 32 -59 32
-65 -1 -5 -10 8 -22 30 -11 22 -32 53 -47 69 -15 16 -20 27 -11 24 8 -2 30
-29 48 -58z m89 -42 c-3 -8 -6 -5 -6 6 -1 11 2 17 5 13 3 -3 4 -12 1 -19z m10
-55 c-3 -10 -5 -4 -5 12 0 17 2 24 5 18 2 -7 2 -21 0 -30z m0 -115 c-3 -7 -5
-2 -5 12 0 14 2 19 5 13 2 -7 2 -19 0 -25z m-20 -70 c-3 -8 -6 -5 -6 6 -1 11
2 17 5 13 3 -3 4 -12 1 -19z"/>
<path d="M1885 3910 c-3 -5 -1 -10 4 -10 6 0 11 5 11 10 0 6 -2 10 -4 10 -3 0
-8 -4 -11 -10z"/>
<path d="M1800 3470 c0 -5 5 -10 11 -10 5 0 7 5 4 10 -3 6 -8 10 -11 10 -2 0
-4 -4 -4 -10z"/>
<path d="M3736 3191 c11 -18 28 -40 38 -49 15 -13 13 -7 -7 28 -15 25 -32 47
-38 49 -6 2 -3 -11 7 -28z"/>
<path d="M3800 3141 c0 -6 4 -13 10 -16 6 -3 7 1 4 9 -7 18 -14 21 -14 7z"/>
<path d="M4073 2819 c-18 -5 -35 -14 -38 -19 -4 -6 3 -6 20 0 15 6 52 10 83
10 63 0 111 -22 149 -68 29 -35 41 -21 14 17 -42 59 -141 85 -228 60z"/>
<path d="M4064 2269 c-30 -23 -58 -33 -115 -40 -100 -14 -103 -23 -4 -14 87 8
117 19 154 59 32 34 16 32 -35 -5z"/>
<path d="M3780 2518 c0 -9 5 -20 10 -23 13 -8 13 5 0 25 -8 13 -10 13 -10 -2z"/>
<path d="M2841 1286 c2 -2 15 -9 29 -16 23 -12 24 -12 11 3 -7 10 -20 17 -29
17 -8 0 -13 -2 -11 -4z"/>
<path d="M3358 1223 c6 -2 18 -2 25 0 6 3 1 5 -13 5 -14 0 -19 -2 -12 -5z"/>
<path d="M3405 1119 c-4 -6 -5 -12 -2 -15 2 -3 7 2 10 11 7 17 1 20 -8 4z"/>
<path d="M3376 1063 c-6 -14 -5 -15 5 -6 7 7 10 15 7 18 -3 3 -9 -2 -12 -12z"/>
<path d="M3208 933 c7 -3 16 -2 19 1 4 3 -2 6 -13 5 -11 0 -14 -3 -6 -6z"/>
<path d="M4501 269 c-34 -190 -43 -237 -47 -251 -4 -14 1 -18 24 -18 l29 0 7
103 c3 56 2 118 -3 137 -5 19 -9 32 -10 29z"/>
</g>
</svg>
