<?xml version="1.0" standalone="no"?>
<!DOCTYPE svg PUBLIC "-//W3C//DTD SVG 20010904//EN"
 "http://www.w3.org/TR/2001/REC-SVG-20010904/DTD/svg10.dtd">
<svg version="1.0" xmlns="http://www.w3.org/2000/svg"
 width="600.000000pt" height="600.000000pt" viewBox="0 0 600.000000 600.000000"
 preserveAspectRatio="xMidYMid meet">

<g transform="translate(0.000000,600.000000) scale(0.100000,-0.100000)"
fill="#000000" stroke="none">
<path d="M1887 5443 c-3 -5 -9 -37 -13 -71 -3 -34 -10 -62 -13 -62 -4 0 -48
20 -99 45 -131 64 -136 62 -66 -36 79 -111 81 -103 -29 -96 -52 3 -98 3 -101
0 -8 -9 16 -24 122 -77 50 -26 92 -48 92 -50 0 -1 -27 -20 -60 -41 -33 -22
-59 -44 -57 -50 6 -15 69 -7 180 21 l97 26 48 -28 c75 -44 186 -162 227 -244
l36 -71 -63 -71 c-35 -38 -156 -162 -270 -275 -170 -168 -210 -213 -220 -247
-27 -89 -10 -629 21 -684 5 -8 -1 -52 -13 -101 -29 -121 -30 -456 -2 -576 56
-238 160 -442 324 -633 l42 -50 -67 -43 c-37 -23 -101 -67 -142 -98 -40 -31
-93 -70 -116 -87 -78 -59 -88 -79 -81 -159 3 -38 17 -108 30 -154 l25 -84 -25
-48 c-45 -89 -86 -204 -86 -236 1 -18 -3 -33 -9 -33 -22 0 -219 -101 -292
-150 -67 -45 -78 -56 -88 -93 -6 -23 -20 -59 -31 -80 -40 -79 -248 -744 -248
-793 0 -12 308 -14 2036 -14 1934 0 2035 1 2030 18 -3 9 -32 105 -65 212 -132
435 -127 424 -182 477 -27 26 -91 74 -142 107 -90 57 -370 200 -474 243 -51
21 -52 23 -43 48 13 34 -11 144 -51 232 -28 63 -28 65 -12 96 12 22 18 63 21
137 4 105 4 105 -30 155 -41 62 -109 129 -165 162 l-42 25 72 57 c95 76 202
190 272 290 31 45 60 79 64 76 4 -2 90 -7 191 -11 l184 -6 -32 36 c-63 72 -77
189 -32 276 16 31 26 40 46 40 14 0 23 4 19 10 -4 6 -56 10 -122 10 l-115 0 6
33 c43 207 45 437 6 597 -27 113 -67 234 -96 292 -30 58 -33 132 -6 143 9 4
83 31 163 60 341 124 422 179 403 275 -9 42 -112 129 -213 179 -186 94 -353
131 -587 131 l-153 0 -11 43 c-19 77 -52 161 -75 199 -77 118 -524 358 -668
358 -62 0 -200 -29 -307 -64 -247 -82 -398 -134 -418 -145 -20 -11 -24 -7 -53
51 -87 172 -218 313 -310 333 -17 4 -33 14 -36 23 -3 10 -26 65 -50 124 -43
102 -65 138 -76 121z m71 -215 c19 -42 19 -48 5 -60 -19 -15 -46 -76 -39 -87
3 -4 -23 -13 -57 -19 -34 -7 -73 -15 -87 -18 -18 -4 -13 2 18 21 23 14 42 29
42 33 0 4 -37 27 -82 50 l-83 42 66 -6 c41 -4 69 -2 73 4 3 6 -14 40 -38 76
-24 36 -43 66 -41 66 2 0 30 -16 62 -35 32 -19 63 -35 70 -35 13 0 33 59 33
100 1 17 7 7 19 -30 10 -30 28 -76 39 -102z m62 -77 c0 -5 -7 -14 -15 -21 -8
-7 -15 -17 -15 -23 0 -6 10 -1 23 11 29 28 34 28 80 -4 26 -17 37 -31 33 -41
-4 -10 -2 -13 8 -10 7 3 27 -9 45 -26 l30 -32 -24 -30 -24 -30 -1 31 c0 16 5
35 12 42 22 22 -3 13 -37 -14 l-34 -25 -24 38 c-21 33 -23 40 -11 54 32 36 7
40 -33 5 l-28 -24 -22 25 c-27 29 -28 32 -7 61 15 22 44 30 44 13z m231 -193
c26 -32 24 -42 -14 -53 -29 -10 -35 -8 -50 11 -16 22 -16 23 9 43 33 26 32 26
55 -1z m59 -97 c-1 -12 -51 -42 -60 -36 -18 11 -11 43 12 60 21 14 24 14 35
-2 7 -9 13 -19 13 -22z m29 -63 c6 -17 10 -32 9 -33 -2 -1 -13 -7 -24 -13 -19
-10 -24 -8 -38 13 -19 29 -20 37 -4 53 22 22 46 13 57 -20z m1307 -584 c92
-47 191 -114 282 -193 52 -45 180 -191 167 -191 -68 0 -277 -61 -261 -77 2 -2
37 6 77 17 45 13 118 24 186 27 l111 6 12 -44 c7 -24 10 -60 7 -80 -3 -24 2
-52 14 -79 10 -23 19 -44 19 -47 0 -2 -17 10 -37 26 -57 45 -108 63 -183 63
-112 0 -208 -59 -257 -160 -54 -109 -32 -243 54 -329 53 -53 106 -76 185 -81
149 -9 247 63 303 223 7 18 8 17 16 -10 32 -109 28 -371 -7 -527 l-16 -68
-108 0 c-151 0 -194 -12 -360 -97 -99 -51 -162 -77 -200 -82 -60 -9 -421 2
-457 14 -27 9 -31 -9 -5 -21 9 -4 123 -10 252 -14 l235 -5 120 -54 c99 -45
134 -56 200 -62 118 -11 165 -20 165 -32 0 -20 -141 -195 -203 -253 -219 -204
-447 -311 -752 -355 -90 -13 -205 17 -408 107 -54 24 -95 39 -92 33 7 -11 163
-91 245 -125 73 -31 50 -30 -63 2 -103 29 -335 136 -409 189 -26 19 -51 35
-55 35 -14 0 35 -45 97 -88 90 -63 93 -67 26 -38 -82 36 -206 121 -298 202
-223 200 -363 448 -430 760 -20 93 -23 138 -23 302 0 201 -5 204 -26 15 -20
-187 16 -426 92 -608 33 -80 141 -272 184 -329 15 -20 25 -36 22 -36 -10 0
-126 160 -169 233 -159 272 -211 623 -142 948 l18 80 85 82 c121 116 192 174
232 191 19 8 131 48 249 89 303 106 462 170 555 224 44 26 117 68 163 95 82
47 223 99 358 132 l71 17 77 -32 c42 -17 75 -34 73 -35 -2 -2 -31 7 -65 21
-106 43 -82 27 78 -52 85 -42 157 -76 160 -75 3 1 16 -6 30 -15 19 -11 16 -7
-10 21 -41 42 -171 118 -252 148 -57 20 -75 38 -40 38 10 0 58 -21 108 -46z
m594 -676 c38 -40 57 -74 47 -84 -2 -2 -16 15 -31 38 -15 24 -44 58 -64 76
-23 21 -28 29 -15 22 13 -6 41 -29 63 -52z m-22 -309 c-129 -148 -124 -145
-212 -141 l-29 2 44 48 c24 27 60 69 79 95 37 49 48 54 123 56 l48 1 -53 -61z
m77 34 c-11 -47 -54 -103 -102 -134 -26 -16 -51 -29 -56 -29 -4 0 11 24 35 53
47 58 120 137 126 137 2 0 1 -12 -3 -27z m-346 -9 c-13 -15 -42 -40 -63 -55
-43 -32 -55 -29 -82 22 -25 50 -30 48 135 57 l34 2 -24 -26z m155 14 c-21 -36
-107 -138 -129 -152 -23 -15 -27 -15 -64 4 -50 25 -59 40 -35 53 10 6 42 32
69 59 48 46 52 48 108 48 44 0 56 -3 51 -12z m263 -620 c-66 -89 -63 -209 7
-287 l21 -24 -70 7 c-63 6 -73 10 -97 38 -16 18 -28 38 -28 44 0 7 -13 22 -30
34 -37 26 -42 80 -10 103 11 8 30 34 43 58 25 47 26 47 165 57 l23 2 -24 -32z
m-461 -102 c-10 -25 -23 -37 -43 -42 -48 -10 -49 -12 -10 -13 31 -1 39 -6 48
-27 5 -15 7 -35 4 -45 -6 -17 -9 -18 -38 -5 -195 86 -190 84 -160 90 15 4 69
29 118 56 97 52 108 50 81 -14z m339 -2159 c58 -33 87 -88 82 -159 -13 -217
-337 -209 -337 9 0 58 15 96 52 130 51 48 138 57 203 20z"/>
<path d="M3180 3821 c-72 -23 -168 -74 -211 -113 l-34 -30 65 35 c74 39 191
87 213 87 9 0 20 -22 31 -58 23 -82 21 -102 -7 -102 -41 0 -125 -50 -171 -101
-136 -151 -95 -396 83 -492 28 -16 73 -31 101 -34 40 -5 50 -10 50 -24 0 -15
-8 -19 -37 -20 l-38 -1 33 -8 c42 -10 41 -9 51 -61 l8 -44 17 37 c9 21 16 44
16 51 0 8 18 19 41 26 23 7 39 14 37 17 -2 2 -19 0 -36 -5 -28 -8 -32 -7 -32
8 0 13 17 25 60 40 79 29 150 99 179 175 11 31 26 64 33 75 9 15 9 28 0 58 -6
21 -16 56 -22 78 -24 101 -117 191 -225 220 -57 16 -62 19 -79 61 -10 24 -28
60 -41 78 l-23 34 56 7 c61 7 143 -7 179 -31 30 -19 39 -18 22 3 -44 53 -206
70 -319 34z m341 -288 c37 -40 59 -75 59 -93 -1 -8 -10 1 -20 21 -11 20 -38
56 -61 79 -23 23 -34 38 -23 32 10 -6 31 -23 45 -39z m69 -287 c0 -7 -12 -21
-27 -31 -16 -10 -64 -55 -108 -101 l-80 -84 -74 0 -74 0 49 54 c27 29 70 78
97 109 47 56 48 56 110 60 34 2 72 4 85 5 13 1 22 -4 22 -12z m-200 -5 c0 -5
-4 -11 -8 -13 -4 -1 -33 -35 -65 -74 -78 -99 -101 -116 -135 -101 -38 16 -72
38 -72 46 0 4 16 15 36 24 20 10 59 40 88 67 43 40 59 49 96 53 25 2 48 4 53
5 4 1 7 -2 7 -7z m-151 -27 c-33 -37 -139 -105 -151 -98 -12 8 -68 95 -68 105
0 10 51 15 159 17 l84 2 -24 -26z m335 -26 c-23 -41 -60 -81 -100 -109 -25
-17 -47 -29 -49 -27 -7 6 130 148 144 148 7 0 9 -5 5 -12z"/>
<path d="M3746 3223 c72 -112 84 -126 62 -75 -19 43 -60 102 -70 102 -6 0 -2
-12 8 -27z"/>
<path d="M3736 3191 c11 -18 28 -40 38 -49 15 -13 13 -7 -7 28 -15 25 -32 47
-38 49 -6 2 -3 -11 7 -28z"/>
<path d="M3860 3065 c19 -23 119 -50 133 -36 8 8 1 11 -24 11 -19 0 -52 9 -74
20 -47 24 -51 25 -35 5z"/>
<path d="M4073 2819 c-18 -5 -35 -14 -38 -19 -4 -6 3 -6 20 0 15 6 52 10 83
10 63 0 111 -22 149 -68 29 -35 41 -21 14 17 -42 59 -141 85 -228 60z"/>
<path d="M4064 2269 c-30 -23 -58 -33 -115 -40 -100 -14 -103 -23 -4 -14 87 8
117 19 154 59 32 34 16 32 -35 -5z"/>
<path d="M3780 2518 c0 -9 5 -20 10 -23 13 -8 13 5 0 25 -8 13 -10 13 -10 -2z"/>
<path d="M4100 293 c0 -18 5 -33 10 -33 13 0 13 30 0 50 -7 11 -10 7 -10 -17z"/>
<path d="M4210 298 c0 -16 5 -28 10 -28 13 0 13 20 0 40 -8 12 -10 9 -10 -12z"/>
<path d="M4042 203 c-21 -8 55 -61 97 -68 25 -4 51 -1 72 8 43 18 83 53 70 61
-5 4 -13 0 -18 -8 -13 -23 -65 -46 -106 -46 -42 0 -94 23 -99 43 -2 8 -9 12
-16 10z"/>
</g>
</svg>
