<svg width="500" height="500" viewBox="0 0 600 600" fill="none" xmlns="http://www.w3.org/2000/svg">
<ellipse cx="249.916" cy="250.25" rx="129.916" ry="128.25" fill="#425ACE"/>
<g clip-path="url(#clip0_429_121)">
<path d="M299.332 215.569H189.881C185.034 215.569 181.105 219.568 181.105 224.502C181.105 229.436 185.034 233.435 189.881 233.435H299.332C304.179 233.435 308.108 229.436 308.108 224.502C308.108 219.568 304.179 215.569 299.332 215.569Z" fill="white"/>
<path d="M324.469 220.333L301.411 202.967C298.046 200.431 293.286 202.87 293.286 207.135V241.867C293.286 246.116 298.046 248.555 301.411 246.035L324.469 228.669C327.214 226.601 327.214 222.417 324.469 220.333Z" fill="white"/>
<path d="M203.83 284.931H313.282C318.129 284.931 322.058 280.932 322.058 275.998C322.058 271.064 318.129 267.064 313.282 267.064H203.83C198.984 267.064 195.055 271.064 195.055 275.998C195.055 280.932 198.984 284.931 203.83 284.931Z" fill="white"/>
<path d="M178.693 280.168L201.751 297.534C205.115 300.071 209.876 297.631 209.876 293.366V258.634C209.876 254.386 205.115 251.946 201.751 254.466L178.693 271.832C175.947 273.9 175.947 278.084 178.693 280.168Z" fill="white"/>
</g>
<defs>
<clipPath id="clip0_429_121">
<rect width="149.903" height="96.6039" fill="white" transform="translate(176.63 201.948)"/>
</clipPath>
</defs>
</svg>
