<svg width="500" height="500" viewBox="0 0 500 500" fill="none" xmlns="http://www.w3.org/2000/svg">
<g filter="url(#filter0_d_429_120)">
<g filter="url(#filter1_d_429_120)">
<ellipse cx="249.916" cy="250.25" rx="129.916" ry="128.25" fill="#425ACE"/>
</g>
<g clip-path="url(#clip0_429_120)">
<rect width="119.922" height="119.922" transform="translate(189.955 191.955)" fill="#425ACE"/>
<path d="M309.876 222.164C309.435 224.214 309.129 226.302 308.535 228.294C307.272 232.605 304.974 236.34 301.814 239.52C293.064 248.313 284.371 257.183 275.467 265.804C265.319 275.631 247.799 276.129 236.923 265.363C233.783 262.26 233.553 257.528 236.406 254.271C239.125 251.168 244.027 250.785 247.416 253.505C249.158 254.903 250.843 256.302 253.084 256.877C257.373 257.988 261.24 257.221 264.496 254.214C267.138 251.781 269.608 249.175 272.155 246.647C278.148 240.67 284.16 234.693 290.115 228.678C295.879 222.854 294.711 213.544 287.76 209.559C283.126 206.915 277.21 207.739 273.227 211.666C268.517 216.321 263.806 220.996 259.173 225.747C257.966 226.973 256.856 227.298 255.228 226.647C251.303 225.076 247.186 224.463 242.993 224.463C242.016 224.463 241.231 224.157 240.81 223.218C240.389 222.241 240.772 221.475 241.461 220.804C248.68 213.62 255.841 206.379 263.136 199.272C267.406 195.134 272.672 192.873 278.569 192.145C278.875 192.107 279.163 191.992 279.469 191.916C281.116 191.916 282.743 191.916 284.39 191.916C284.773 191.992 285.137 192.107 285.52 192.165C296.606 193.946 304.246 200.057 308.229 210.574C309.091 212.835 309.359 215.306 309.914 217.682V222.126L309.876 222.164Z" fill="white"/>
<path d="M243.607 230.517C250.959 230.593 257.546 233.275 263.022 238.601C266.144 241.628 266.278 246.398 263.444 249.597C260.706 252.662 255.842 253.045 252.53 250.382C250.768 248.965 249.064 247.528 246.766 246.953C242.649 245.9 238.973 246.666 235.68 249.329C235.431 249.52 235.201 249.731 234.99 249.961C226.469 258.486 217.91 266.972 209.428 275.554C205.33 279.711 204.871 286.148 208.145 290.803C212.473 296.953 221.127 297.661 226.604 292.24C231.295 287.604 235.967 282.968 240.562 278.217C241.903 276.838 243.128 276.512 244.909 277.24C248.643 278.754 252.568 279.309 256.57 279.328C257.642 279.328 258.618 279.462 259.097 280.593C259.595 281.742 258.944 282.528 258.197 283.256C250.921 290.497 243.817 297.911 236.311 304.903C230.031 310.765 222.238 312.891 213.755 311.493C202.822 309.692 195.259 303.428 191.621 292.987C188.136 282.987 190.108 273.735 196.905 265.631C199.069 263.045 201.616 260.746 204.009 258.332C210.768 251.57 217.47 244.75 224.325 238.103C229.571 233.026 236.005 230.651 243.588 230.536L243.607 230.517Z" fill="white"/>
</g>
</g>
<defs>
<filter id="filter0_d_429_120" x="90.3" y="92.3" width="319.231" height="315.9" filterUnits="userSpaceOnUse" color-interpolation-filters="sRGB">
<feFlood flood-opacity="0" result="BackgroundImageFix"/>
<feColorMatrix in="SourceAlpha" type="matrix" values="0 0 0 0 0 0 0 0 0 0 0 0 0 0 0 0 0 0 127 0" result="hardAlpha"/>
<feOffset/>
<feGaussianBlur stdDeviation="14.85"/>
<feComposite in2="hardAlpha" operator="out"/>
<feColorMatrix type="matrix" values="0 0 0 0 1 0 0 0 0 1 0 0 0 0 1 0 0 0 0.5 0"/>
<feBlend mode="normal" in2="BackgroundImageFix" result="effect1_dropShadow_429_120"/>
<feBlend mode="normal" in="SourceGraphic" in2="effect1_dropShadow_429_120" result="shape"/>
</filter>
<filter id="filter1_d_429_120" x="111.4" y="119.4" width="277.031" height="273.7" filterUnits="userSpaceOnUse" color-interpolation-filters="sRGB">
<feFlood flood-opacity="0" result="BackgroundImageFix"/>
<feColorMatrix in="SourceAlpha" type="matrix" values="0 0 0 0 0 0 0 0 0 0 0 0 0 0 0 0 0 0 127 0" result="hardAlpha"/>
<feMorphology radius="3" operator="dilate" in="SourceAlpha" result="effect1_dropShadow_429_120"/>
<feOffset dy="6"/>
<feGaussianBlur stdDeviation="2.8"/>
<feComposite in2="hardAlpha" operator="out"/>
<feColorMatrix type="matrix" values="0 0 0 0 0 0 0 0 0 0 0 0 0 0 0 0 0 0 0.25 0"/>
<feBlend mode="normal" in2="BackgroundImageFix" result="effect1_dropShadow_429_120"/>
<feBlend mode="normal" in="SourceGraphic" in2="effect1_dropShadow_429_120" result="shape"/>
</filter>
<clipPath id="clip0_429_120">
<rect width="119.922" height="119.922" fill="white" transform="translate(189.955 191.955)"/>
</clipPath>
</defs>
</svg>
